# xmcd
#
# Track frame offsets:
#	150
#	10573
#	30994
#	47435
#	66636
#	79363
#	95844
#	117358
#	135668
#	152595
#	176534
#	191613
#	207245
#
# Disc length: 2946 seconds
#
# Revision: 1
# Processed by: cddbd v1.4PL0 Copyright (c) Steve Scherf et al.
# Submitted via: audiograbber 1.82.02
#
DISCID=aa0b800d
DTITLE=Rick Vito - Band Box Boogie
DYEAR=2003
DGENRE=Swing
TTITLE0=Rhythm
TTITLE1=Blues Town
TTITLE2=Last Change To Mambo
TTITLE3=Little Sheba
TTITLE4=Band Box Boogie
TTITLE5=Where Did You Go Bettie Page ?
TTITLE6=The Ways Of Sin
TTITLE7=Baby's In The Big House
TTITLE8=The Gypsy Serenade
TTITLE9=Message From Mister Jordan
TTITLE10=Hungry Man
TTITLE11=I Cant't Stop Rockin'
TTITLE12=Jack Knife Jump
EXTD=
EXTT0=
EXTT1=
EXTT2=
EXTT3=
EXTT4=
EXTT5=
EXTT6=
EXTT7=
EXTT8=
EXTT9=
EXTT10=
EXTT11=
EXTT12=
PLAYORDER=
